# File created by Blade
# Date/Time:  Thu Sep 25 21:01:51 2014
# Frame Rate: 120.000 fps
#------------------------------------------------------
:FULLY-SPECIFIED
:DEGREES
1601
root 2.989490 4.773563 -7.510267 19.813982 -7.885603 -11.329336
Spine -3.810607 18.667962 26.102303
Head -23.764343 2.775289 -2.737109
LeftShoulder -4.900677 13.372035 9.525303
LeftArm 43.473734 58.703208 -53.002488
LeftForeArm 9.720071 -0.000000 26.252232
LeftHand -21.555206 -0.000000 -10.837830
LeftHandThumb1 -26.253704 0.000000 33.147579
RightShoulder -14.088534 16.559542 -22.667218
RightArm 3.832467 -33.217291 57.860467
RightForeArm -33.755541 -0.000000 52.383846
RightHand -7.941480 -0.000000 21.792732
RightHandThumb1 -24.326973 -0.000000 -32.862282
LeftUpLeg -115.505108 -9.091878 -63.850830
LeftLeg 135.060625 -0.000000 -0.000000
LeftFoot 43.542838 3.012860 -26.595417
LeftToeBase -22.432498 -0.000000 0.000000
RightUpLeg -27.039525 -29.810332 -57.781572
RightLeg 138.529371 -0.000000 -0.000000
RightFoot 21.449284 -28.014795 2.091957
RightToeBase 6.744581 -0.000000 -0.000000
1602
root 2.989472 4.768360 -7.530046 19.659133 -7.997233 -11.338367
Spine -3.530765 18.520424 25.958257
Head -23.680438 2.738333 -2.545882
LeftShoulder -4.845470 13.379135 9.584899
LeftArm 43.578703 58.841474 -52.855679
LeftForeArm 9.783478 -0.000000 25.896579
LeftHand -21.762333 0.000000 -9.666502
LeftHandThumb1 -26.253704 0.000000 33.147579
RightShoulder -13.903937 16.530402 -22.685504
RightArm 4.323462 -33.237210 57.811539
RightForeArm -32.896906 -0.000000 51.576528
RightHand -7.733066 -0.000000 21.628458
RightHandThumb1 -24.326973 -0.000000 -32.862282
LeftUpLeg -115.565430 -8.978220 -63.769299
LeftLeg 135.000504 -0.000000 -0.000000
LeftFoot 43.660984 3.072696 -26.886796
LeftToeBase -22.273442 -0.000000 0.000000
RightUpLeg -27.187865 -29.609864 -57.778821
RightLeg 138.600185 -0.000000 -0.000000
RightFoot 21.543431 -28.039057 2.070296
RightToeBase 6.714879 -0.000000 -0.000000
1603
root 2.989899 4.764034 -7.547507 19.460863 -8.096569 -11.373140
Spine -3.211282 18.400912 25.883826
Head -23.493531 2.724185 -2.395596
LeftShoulder -4.691833 13.265184 9.618650
LeftArm 43.483080 59.061172 -52.893422
LeftForeArm 10.034215 -0.000000 25.473695
LeftHand -22.062750 -0.000000 -8.398146
LeftHandThumb1 -26.253704 0.000000 33.147579
RightShoulder -13.745413 16.526293 -22.696779
RightArm 4.842791 -33.503407 57.623684
RightForeArm -32.342254 -0.000000 50.845701
RightHand -7.654263 -0.000000 21.473855
RightHandThumb1 -24.326973 -0.000000 -32.862282
LeftUpLeg -115.604069 -8.852810 -63.686159
LeftLeg 134.950804 -0.000000 -0.000000
LeftFoot 43.755456 3.170230 -27.025007
LeftToeBase -22.102582 -0.000000 0.000000
RightUpLeg -27.298059 -29.375994 -57.754805
RightLeg 138.662949 -0.000000 -0.000000
RightFoot 21.600964 -28.063372 2.036964
RightToeBase 6.634858 -0.000000 -0.000000
1604
root 2.989846 4.757212 -7.563798 19.249594 -8.210512 -11.417789
Spine -2.907036 18.266829 25.793641
Head -23.236446 2.664178 -2.180045
LeftShoulder -4.557476 13.110803 9.651111
LeftArm 43.311800 59.327335 -53.035343
LeftForeArm 9.948810 -0.000000 25.058206
LeftHand -22.742956 -0.000000 -6.815668
LeftHandThumb1 -26.253704 0.000000 33.147579
RightShoulder -13.556737 16.646979 -22.732485
RightArm 5.260269 -34.105256 57.482026
RightForeArm -32.227777 -0.000000 50.133834
RightHand -7.596084 -0.000000 21.182118
RightHandThumb1 -24.326973 -0.000000 -32.862282
LeftUpLeg -115.668630 -8.700618 -63.618396
LeftLeg 134.923775 -0.000000 -0.000000
LeftFoot 43.792349 3.510128 -27.572140
LeftToeBase -21.535761 -0.000000 0.000000
RightUpLeg -27.394020 -29.134157 -57.738152
RightLeg 138.738265 -0.000000 -0.000000
RightFoot 21.869996 -28.015282 1.571859
RightToeBase 7.406343 -0.000000 -0.000000
1605
root 2.989115 4.750417 -7.585954 19.101187 -8.299781 -11.474822
Spine -2.700220 18.165462 25.701438
Head -22.877146 2.556556 -2.002154
LeftShoulder -4.439731 13.058102 9.645599
LeftArm 43.321855 59.467659 -53.002925
LeftForeArm 9.967824 -0.000000 24.595783
LeftHand -23.018971 0.000000 -5.921825
LeftHandThumb1 -26.253704 0.000000 33.147579
RightShoulder -13.411673 16.831286 -22.825090
RightArm 5.676943 -34.925323 57.359865
RightForeArm -32.104156 -0.000000 49.423654
RightHand -7.520350 -0.000000 21.570013
RightHandThumb1 -24.326973 -0.000000 -32.862282
LeftUpLeg -115.727824 -8.635676 -63.497236
LeftLeg 134.879865 -0.000000 -0.000000
LeftFoot 43.830857 3.569371 -27.683736
LeftToeBase -21.914238 -0.000000 0.000000
RightUpLeg -27.534290 -28.942917 -57.680990
RightLeg 138.821231 -0.000000 -0.000000
RightFoot 21.860231 -28.061224 1.657607
RightToeBase 7.371031 -0.000000 -0.000000
1606
root 2.987944 4.739702 -7.606840 18.937321 -8.395898 -11.557634
Spine -2.479265 18.057641 25.623843
Head -22.528912 2.444884 -1.760034
LeftShoulder -4.367385 13.037164 9.624896
LeftArm 43.129668 59.430796 -53.219132
LeftForeArm 9.899082 -0.000000 24.199211
LeftHand -23.141469 -0.000000 -5.226755
LeftHandThumb1 -26.253704 0.000000 33.147579
RightShoulder -13.279733 16.990995 -22.921065
RightArm 6.150123 -35.771462 57.203488
RightForeArm -31.779684 -0.000000 48.679076
RightHand -7.399428 -0.000000 21.849405
RightHandThumb1 -24.326973 -0.000000 -32.862282
LeftUpLeg -115.799029 -8.579838 -63.335771
LeftLeg 134.860651 -0.000000 -0.000000
LeftFoot 43.835826 3.690251 -27.991625
LeftToeBase -22.621154 -0.000000 0.000000
RightUpLeg -27.674837 -28.729972 -57.621085
RightLeg 138.907520 -0.000000 -0.000000
RightFoot 21.841479 -28.077971 1.688569
RightToeBase 7.525440 -0.000000 -0.000000
1607
root 2.984211 4.727693 -7.631384 18.794018 -8.502123 -11.651082
Spine -2.269935 17.973952 25.511525
Head -22.232895 2.303749 -1.443725
LeftShoulder -4.314292 13.022179 9.624446
LeftArm 43.020127 59.402175 -53.360565
LeftForeArm 9.303869 -0.000000 23.908362
LeftHand -23.524072 -0.000000 -4.195168
LeftHandThumb1 -26.253704 0.000000 33.147579
RightShoulder -13.202886 17.342076 -23.012849
RightArm 6.429747 -36.770419 57.132650
RightForeArm -31.555577 0.000000 47.972319
RightHand -7.265842 0.000000 21.829018
RightHandThumb1 -24.326973 -0.000000 -32.862282
LeftUpLeg -115.918503 -8.523156 -63.162029
LeftLeg 134.862920 -0.000000 -0.000000
LeftFoot 43.842246 3.802985 -28.390915
LeftToeBase -23.002134 -0.000000 0.000000
RightUpLeg -27.848984 -28.538543 -57.530554
RightLeg 139.003562 -0.000000 -0.000000
RightFoot 21.970264 -28.060006 1.470044
RightToeBase 7.456338 -0.000000 -0.000000
1608
root 2.978107 4.715305 -7.659975 18.624384 -8.617653 -11.749461
Spine -1.996173 17.901820 25.407646
Head -22.002255 2.152854 -1.147478
LeftShoulder -4.279062 13.015039 9.583433
LeftArm 42.815661 59.199613 -53.560356
LeftForeArm 9.109682 -0.000000 23.770157
LeftHand -23.673565 -0.000000 -3.931940
LeftHandThumb1 -26.253704 0.000000 33.147579
RightShoulder -13.100651 17.650438 -23.082188
RightArm 6.707384 -37.536602 57.132160
RightForeArm -31.466738 0.000000 47.222237
RightHand -7.142890 -0.000000 21.899360
RightHandThumb1 -24.326973 -0.000000 -32.862282
LeftUpLeg -116.089681 -8.440480 -63.019746
LeftLeg 134.868158 -0.000000 -0.000000
LeftFoot 43.843561 3.847820 -28.523630
LeftToeBase -22.984710 -0.000000 0.000000
RightUpLeg -28.047263 -28.329292 -57.422689
RightLeg 139.121852 -0.000000 -0.000000
RightFoot 22.010923 -28.077638 1.256048
RightToeBase 7.872715 -0.000000 -0.000000
1609
root 2.972271 4.699943 -7.689956 18.453532 -8.734948 -11.865772
Spine -1.692109 17.861292 25.309246
Head -21.836661 1.937694 -0.822181
LeftShoulder -4.285732 13.052882 9.579229
LeftArm 42.843420 59.024874 -53.579090
LeftForeArm 9.014551 -0.000000 23.725221
LeftHand -23.853057 -0.000000 -3.683267
LeftHandThumb1 -26.253704 0.000000 33.147579
RightShoulder -12.993070 17.907708 -23.131294
RightArm 6.913922 -38.124333 57.134329
RightForeArm -31.035111 -0.000000 46.604243
RightHand -6.950986 -0.000000 22.169751
RightHandThumb1 -24.326973 -0.000000 -32.862282
LeftUpLeg -116.228265 -8.398755 -62.813423
LeftLeg 134.867539 -0.000000 -0.000000
LeftFoot 43.818782 3.967723 -28.880231
LeftToeBase -23.912247 -0.000000 0.000000
RightUpLeg -28.240682 -28.090436 -57.322944
RightLeg 139.248638 -0.000000 -0.000000
RightFoot 22.065130 -28.041012 1.169612
RightToeBase 7.986968 -0.000000 -0.000000
1610
root 2.965203 4.684005 -7.723888 18.269420 -8.871947 -11.970391
Spine -1.340137 17.824420 25.170656
Head -21.769297 1.738352 -0.482227
LeftShoulder -4.301266 13.013020 9.598330
LeftArm 42.860367 58.948559 -53.512913
LeftForeArm 8.795557 -0.000000 23.889257
LeftHand -24.349168 -0.000000 -2.891414
LeftHandThumb1 -26.253704 0.000000 33.147579
RightShoulder -12.815097 18.126037 -23.074990
RightArm 7.092809 -38.475125 57.085003
RightForeArm -30.604922 0.000000 46.051749
RightHand -6.813145 0.000000 22.330146
RightHandThumb1 -24.326973 -0.000000 -32.862282
LeftUpLeg -116.386933 -8.370259 -62.586864
LeftLeg 134.862886 -0.000000 -0.000000
LeftFoot 43.788542 4.090711 -29.220811
LeftToeBase -24.878767 -0.000000 0.000000
RightUpLeg -28.461978 -27.837123 -57.229894
RightLeg 139.384492 -0.000000 -0.000000
RightFoot 22.112181 -28.056306 1.118137
RightToeBase 8.248549 -0.000000 -0.000000
